<svg xmlns="http://www.w3.org/2000/svg" width="1030.604" height="846.659" >
  <g id="Cassette_tape" data-name="Cassette tape" transform="matrix(0.951, 0.309, -0.309, 0.951, 205.506, -86.165)">
    <path id="Path_27" data-name="Path 27" d="M824.527,88H79.625A71.706,71.706,0,0,0,8,159.625v458.4a71.706,71.706,0,0,0,71.625,71.625h744.9a71.706,71.706,0,0,0,71.625-71.625v-458.4A71.706,71.706,0,0,0,824.527,88ZM36.65,159.625A43.023,43.023,0,0,1,79.625,116.65h744.9A43.023,43.023,0,0,1,867.5,159.625V202.6H36.65ZM303.354,661l42.975-85.95H556.155L600.473,661ZM867.5,618.027A43.023,43.023,0,0,1,824.527,661H632.708L577.617,554.16a14.325,14.325,0,0,0-12.731-7.759H337.476a14.325,14.325,0,0,0-12.812,7.918L271.323,661H79.625A43.023,43.023,0,0,1,36.65,618.027V231.25H867.5Z" transform="translate(0)" fill="#f8c878"/>
    <path id="Path_28" data-name="Path 28" d="M188.275,400.551h401.1a100.275,100.275,0,1,0,0-200.551h-401.1a100.275,100.275,0,1,0,0,200.551ZM661,300.275a71.625,71.625,0,1,1-71.625-71.625A71.625,71.625,0,0,1,661,300.275ZM519.295,228.65a100.051,100.051,0,0,0,0,143.25H258.357a100.051,100.051,0,0,0,0-143.25Zm-331.019,0a71.625,71.625,0,1,1-71.625,71.625,71.625,71.625,0,0,1,71.625-71.625Z" transform="translate(63.25 88.551)" fill="#f8c878"/>
    <path id="Path_29" data-name="Path 29" d="M168.925,128H54.325a14.325,14.325,0,1,0,0,28.65h114.6a14.325,14.325,0,1,0,0-28.65Z" transform="translate(25.3 31.625)" fill="#f8c878"/>
    <path id="Path_30" data-name="Path 30" d="M155.65,128H141.325a14.325,14.325,0,1,0,0,28.65H155.65a14.325,14.325,0,0,0,0-28.65Z" transform="translate(94.085 31.625)" fill="#f8c878"/>
  </g>
</svg>
