<svg xmlns="http://www.w3.org/2000/svg" viewBox="0 0 726.868 828.495">
  <g id="mic" data-name="mic(1)" transform="translate(-31.413 0)" opacity="0.27">
    <path id="Path_6" data-name="Path 6" d="M0,0H72.791V48.529H0Z" transform="translate(246.584 477.293) rotate(-45)" fill="rgba(37,37,37,0.36)"/>
    <path id="Path_7" data-name="Path 7" d="M39.258,765.167c17.3,39.26,59.9,65.111,107.017,63.233h222.5V779.871l-224.1.024c-31.087,1.409-53.048-16.223-61.015-34.3-4.033-9.153-8.255-27.051,8.793-44.1l56.115-56.317,47.273,47.273L524.923,436.288a217.08,217.08,0,0,0,151.254-47.241l32.558,32.558,34.315-34.315-32.558-32.558A218.288,218.288,0,0,0,694.281,64C614.5-15.781,488.992-20.731,403.553,47.8L370.982,15.227,336.668,49.541l32.58,32.58a218.122,218.122,0,0,0-47.16,150.955L62.426,559.033l51.833,51.833L58.114,667.213c-26.945,26.946-34.006,63.576-18.855,97.953ZM675.91,320.151,438.134,82.377A169.878,169.878,0,0,1,675.91,320.151ZM419.763,338.524c-60.4-60.4-65.7-155.337-15.927-221.814L641.6,354.467A169.8,169.8,0,0,1,419.763,338.524ZM127.39,555.368l207.8-260.859A218.752,218.752,0,0,0,463.051,422.954L199.856,627.834Z" transform="translate(0 0)" fill="rgba(37,37,37,0.36)"/>
  </g>
</svg>
