<svg xmlns="http://www.w3.org/2000/svg" viewBox="0 0 989.133 836.514">
  <g id="piano" transform="translate(0 -39.499)" >
    <g id="Group_12" data-name="Group 12" transform="translate(445.303 405.36)">
      <g id="Group_11" data-name="Group 11">
        <path id="Path_4" data-name="Path 4" d="M314.538,228.878H244.989a14.489,14.489,0,0,0,0,28.979h69.548a14.489,14.489,0,0,0,0-28.979Z" transform="translate(-230.5 -228.878)" fill="#fff"/>
      </g>
    </g>
    <g id="Group_14" data-name="Group 14" transform="translate(0 39.499)">
      <g id="Group_13" data-name="Group 13">
        <path id="Path_5" data-name="Path 5" d="M974.643,458.719H963.052V351.51a14.49,14.49,0,0,0-14.489-14.489H931.5l-93.676-201.98,55.7-18.473a39.431,39.431,0,0,0,26.942-37.55,39.965,39.965,0,0,0-1.92-12.227,39.17,39.17,0,0,0-19.686-23.075A38.618,38.618,0,0,0,869.044,41.5L789.411,67.911a14.489,14.489,0,0,0,9.121,27.5L878.174,69a9.84,9.84,0,0,1,7.606.568,10.362,10.362,0,0,1,5.189,6.1,10.94,10.94,0,0,1,.524,3.34A10.5,10.5,0,0,1,884.4,89.063L136.719,337.019H70.006L738.658,115.272a14.489,14.489,0,1,0-9.12-27.5L53.023,312.122a39.4,39.4,0,0,0-26.942,37.512c0,.46.014.894.027,1.327-.008.184-.027.361-.027.547V458.717H14.489A14.49,14.49,0,0,0,0,473.206V589.118a14.49,14.49,0,0,0,14.489,14.489h3.864V861.524a14.49,14.49,0,0,0,14.489,14.489H90.8a14.49,14.49,0,0,0,14.489-14.489V603.609H451.1V729.364a43.449,43.449,0,0,0-79.208,24.7v14.489h-6.762a22.242,22.242,0,0,0-22.217,22.217v34.774a22.242,22.242,0,0,0,22.217,22.217H624a22.242,22.242,0,0,0,22.217-22.217V790.77A22.242,22.242,0,0,0,624,768.553h-6.762V754.064a43.449,43.449,0,0,0-79.208-24.7V603.609H740.883a14.489,14.489,0,1,0,0-28.979H28.978V487.7l28.978.01v35.731a14.49,14.49,0,0,0,14.489,14.489h844.24a14.49,14.49,0,0,0,14.489-14.489V487.707l28.979-.01v86.934H804.636a14.489,14.489,0,0,0,0,28.979h79.208V861.524a14.49,14.49,0,0,0,14.489,14.489H956.29a14.49,14.49,0,0,0,14.489-14.489V603.609h3.864a14.49,14.49,0,0,0,14.489-14.489V473.208A14.49,14.49,0,0,0,974.643,458.719ZM400.869,754.064a14.489,14.489,0,1,1,28.979,0v14.489H400.869Zm158.416,0a14.489,14.489,0,0,1,28.979,0v14.489H559.285Zm57.957,43.466v21.251H371.891V797.53ZM480.077,603.619h28.978V713.088a43.365,43.365,0,0,0-28.978,0Zm0,150.445a14.489,14.489,0,1,1,28.978,0v14.489H480.077ZM47.332,603.619H76.31V847.035H47.332Zm762.811-459.4,89.416,192.8H654.591V309.006a22.242,22.242,0,0,0-22.217-22.217H380.24ZM363.52,315.768h262.1v21.251H363.52ZM335.872,301.5a22.066,22.066,0,0,0-1.331,7.5v28.013H228.779Zm598.2,157.214-686.307.01a14.489,14.489,0,1,0,0,28.979H902.2v21.241H86.935V487.707h98.044a14.489,14.489,0,0,0,0-28.979l-129.92-.01V366H934.073ZM941.8,847.035H912.823V603.619H941.8Z" transform="translate(0 -39.499)" fill="#fff"/>
      </g>
    </g>
  </g>
</svg>
