<svg xmlns="http://www.w3.org/2000/svg" width="822" height="719.288" >
  <path id="react-brands" d="M671.407,265.106q-13-4.335-26.009-8.188c1.445-5.94,2.729-11.88,4.014-17.821,19.747-95.686,6.743-172.588-37.086-197.954-42.224-24.243-111.1.963-180.776,61.65-6.9,5.94-13.646,12.2-20.068,18.463-4.335-4.174-8.83-8.348-13.325-12.362C325.107,44.033,251.9,16.74,208.069,42.267c-42.063,24.4-54.586,96.81-36.926,187.358,1.766,8.991,3.693,17.821,5.94,26.811-10.275,2.89-20.389,6.1-29.862,9.472C61.489,295.61,0,342.49,0,390.975c0,50.091,65.5,100.342,154.607,130.846,7.225,2.408,14.449,4.816,21.834,6.9-2.408,9.633-4.5,19.105-6.422,28.9-16.857,89.1-3.693,159.744,38.371,183.987,43.348,25.045,116.236-.642,187.2-62.774,5.619-4.977,11.238-10.114,16.857-15.573,7.064,6.9,14.449,13.486,21.834,19.908,68.714,59.081,136.625,83,178.528,58.76,43.348-25.045,57.476-100.984,39.173-193.459q-2.167-10.6-4.816-21.674c5.138-1.445,10.114-3.05,15.091-4.656C754.891,491.477,822,441.868,822,390.975,822,342.329,758.744,295.129,671.407,265.106ZM454.187,128.8c59.723-52.017,115.433-72.407,140.8-57.8,27.132,15.573,37.568,78.507,20.55,161.189-1.124,5.459-2.248,10.757-3.693,16.055A821.881,821.881,0,0,0,503.8,231.231a811.15,811.15,0,0,0-68.393-85.25C441.664,140.04,447.765,134.421,454.187,128.8ZM268.434,474.3c8.188,13.968,16.536,27.935,25.366,41.582a726.987,726.987,0,0,1-74.494-12.041A749.971,749.971,0,0,1,245.476,432.4c7.385,14.128,14.931,28.1,22.958,41.9ZM219.789,281.161c23.119-5.137,47.682-9.312,73.209-12.523-8.509,13.325-16.857,26.972-24.724,40.779-7.867,13.646-15.573,27.614-22.8,41.742-10.114-23.921-18.623-47.361-25.687-70Zm43.99,110.617c10.6-22.155,22.155-43.829,34.357-65.182s25.366-42.063,39.173-62.453c24.082-1.766,48.646-2.729,73.691-2.729s49.77.963,73.691,2.729q20.47,30.343,39.013,62.132t34.839,64.861q-16.135,33.233-34.678,65.5c-12.2,21.353-25.206,42.063-38.852,62.613-23.921,1.766-48.806,2.569-74.012,2.569s-49.609-.8-73.209-2.248Q316.839,488.989,298.3,456.96c-12.362-21.353-23.761-43.027-34.518-65.182Zm289.948,82.2c8.188-14.128,15.894-28.417,23.44-42.866A745.262,745.262,0,0,1,604.3,502.234a705.162,705.162,0,0,1-75.457,12.844c8.67-13.486,16.857-27.293,24.885-41.1ZM576.845,351.16C569.3,337.031,561.593,322.9,553.565,309.1q-11.8-20.47-24.564-40.458a738.805,738.805,0,0,1,73.691,12.844A710.5,710.5,0,0,1,576.845,351.16ZM411.321,170.544a705,705,0,0,1,47.522,57.476c-31.788-1.445-63.737-1.445-95.525,0C379.051,207.31,395.266,188.044,411.321,170.544ZM225.087,72.129c26.972-15.734,86.856,6.743,149.951,62.613,4.014,3.532,8.027,7.385,12.2,11.238a815.657,815.657,0,0,0-68.875,85.25,846.291,846.291,0,0,0-107.887,16.7c-2.087-8.188-3.853-16.536-5.619-24.885-15.091-77.7-5.137-136.3,20.229-150.914Zm-39.334,423.2c-6.743-1.927-13.325-4.014-19.908-6.261C131.648,478.313,92.8,461.295,64.7,438.979a72.04,72.04,0,0,1-30.183-48c0-29.38,50.733-66.948,123.942-92.475,9.151-3.211,18.463-6.1,27.775-8.83a853.7,853.7,0,0,0,39.334,102.108A877.584,877.584,0,0,0,185.753,495.331Zm187.2,157.336A293.852,293.852,0,0,1,282.4,709.34a71.059,71.059,0,0,1-56.673,2.087c-25.527-14.77-36.123-71.443-21.674-147.7,1.766-8.991,3.693-17.981,5.94-26.811a803.162,803.162,0,0,0,109.011,15.734,847.232,847.232,0,0,0,69.356,85.732c-5.137,4.977-10.275,9.793-15.413,14.289Zm39.334-39.013c-16.376-17.66-32.752-37.247-48.646-58.279,15.413.642,31.307.963,47.361.963,16.536,0,32.752-.321,48.806-1.124A692.362,692.362,0,0,1,412.284,613.654Zm209.835,48.164a71.351,71.351,0,0,1-26.49,50.251c-25.527,14.77-79.952-4.5-138.712-54.907-6.743-5.78-13.486-12.041-20.389-18.463a794.2,794.2,0,0,0,67.751-86.053,791.438,791.438,0,0,0,109.493-16.857c1.605,6.582,3.05,13.165,4.335,19.587a292.664,292.664,0,0,1,4.014,106.443Zm29.22-172.588c-4.5,1.445-8.991,2.89-13.647,4.174a815.572,815.572,0,0,0-40.939-102.429,811.515,811.515,0,0,0,39.334-100.984c8.348,2.408,16.376,4.977,24.082,7.546,74.815,25.688,127.314,63.9,127.314,93.117C787.482,422.121,731.451,462.74,651.339,489.23ZM411,465.148a73.53,73.53,0,1,0-73.53-73.53A73.519,73.519,0,0,0,411,465.148Z" transform="translate(0 -32.013)" fill="#f8c878"/>
</svg>
