<svg xmlns="http://www.w3.org/2000/svg" viewBox="0 0 354.988 259.414">
  <g id="sound-wave" transform="translate(0 -0.492)" opacity="0.4">
    <path id="Path_8" data-name="Path 8" d="M6.828,102.895A6.824,6.824,0,0,0,0,109.719v34.133a6.826,6.826,0,1,0,13.652,0V109.719A6.823,6.823,0,0,0,6.828,102.9Zm0,0" fill="rgba(37,37,37,0.36)"/>
    <path id="Path_9" data-name="Path 9" d="M40.984,74.941a6.83,6.83,0,0,0-6.828,6.828v94.516a6.828,6.828,0,0,0,13.656,0V81.77a6.83,6.83,0,0,0-6.828-6.828Zm0,0" fill="rgba(37,37,37,0.36)"/>
    <path id="Path_10" data-name="Path 10" d="M75.094,27.8a6.827,6.827,0,0,0-6.828,6.824V225.773a6.828,6.828,0,0,0,13.656,0V34.625A6.827,6.827,0,0,0,75.094,27.8Zm0,0" fill="rgba(37,37,37,0.36)"/>
    <path id="Path_11" data-name="Path 11" d="M109.227,61.934a6.828,6.828,0,0,0-6.828,6.828V184.813a6.828,6.828,0,1,0,13.656,0V68.762a6.828,6.828,0,0,0-6.828-6.828Zm0,0" fill="rgba(37,37,37,0.36)"/>
    <path id="Path_12" data-name="Path 12" d="M212.293,45.406a6.824,6.824,0,0,0-6.824,6.828v153.59a6.826,6.826,0,0,0,13.652,0V52.234a6.828,6.828,0,0,0-6.828-6.828Zm0,0" fill="rgba(37,37,37,0.36)"/>
    <path id="Path_13" data-name="Path 13" d="M279.895,55.105a6.83,6.83,0,0,0-6.828,6.828V198.465a6.826,6.826,0,1,0,13.652,0V61.934a6.827,6.827,0,0,0-6.824-6.828Zm0,0" fill="rgba(37,37,37,0.36)"/>
    <path id="Path_14" data-name="Path 14" d="M314.027,89.238a6.83,6.83,0,0,0-6.828,6.828v68.266a6.826,6.826,0,1,0,13.652,0V96.066A6.827,6.827,0,0,0,314.027,89.238Zm0,0" fill="rgba(37,37,37,0.36)"/>
    <path id="Path_15" data-name="Path 15" d="M245.762.492a6.828,6.828,0,0,0-6.828,6.828V253.078a6.826,6.826,0,1,0,13.652,0V7.32A6.827,6.827,0,0,0,245.762.492Zm0,0" fill="rgba(37,37,37,0.36)"/>
    <path id="Path_16" data-name="Path 16" d="M143.359,109.719a6.827,6.827,0,0,0-6.824,6.828v27.3a6.826,6.826,0,1,0,13.652,0v-27.3A6.83,6.83,0,0,0,143.359,109.719Zm0,0" fill="rgba(37,37,37,0.36)"/>
    <path id="Path_17" data-name="Path 17" d="M348.16,107.434a6.827,6.827,0,0,0-6.828,6.824V143.8a6.828,6.828,0,0,0,13.656,0V114.258A6.827,6.827,0,0,0,348.16,107.434Zm0,0" fill="rgba(37,37,37,0.36)"/>
    <path id="Path_18" data-name="Path 18" d="M176.852,94.418a6.824,6.824,0,0,0-6.828,6.824v55.57a6.826,6.826,0,1,0,13.652,0v-55.57A6.823,6.823,0,0,0,176.852,94.418Zm0,0" fill="rgba(37,37,37,0.36)"/>
  </g>
</svg>
