<svg xmlns="http://www.w3.org/2000/svg"  viewBox="0 0 1163.842 1163.027">
  <g id="violin" transform="translate(0 -0.179)" opacity="0.27">
    <g id="Group_6" data-name="Group 6" transform="translate(455.074 691.382)">
      <g id="Group_5" data-name="Group 5">
        <path id="Path_1" data-name="Path 1" d="M291.036,357.438A36.656,36.656,0,0,0,279.479,306.9,17.282,17.282,0,0,0,261.1,336.173a2.085,2.085,0,0,1,.659,2.885L205.8,428.226a36.7,36.7,0,0,0,11.554,50.539,17.281,17.281,0,0,0,18.378-29.271,2.092,2.092,0,0,1-.659-2.889Z" transform="translate(-200.197 -304.254)" fill="rgba(37,37,37,0.36)"/>
      </g>
    </g>
    <g id="Group_8" data-name="Group 8" transform="translate(294.665 611.664)">
      <g id="Group_7" data-name="Group 7">
        <path id="Path_2" data-name="Path 2" d="M304.141,286.37A36.66,36.66,0,0,0,253.6,274.809l-89.17,55.971a2.088,2.088,0,0,1-2.885-.662A17.282,17.282,0,0,0,132.276,348.5a36.411,36.411,0,0,0,22.877,16.246,37.014,37.014,0,0,0,8.242.936,36.429,36.429,0,0,0,19.419-5.621l89.168-55.969a2.09,2.09,0,0,1,2.885.661,17.282,17.282,0,1,0,29.273-18.378Z" transform="translate(-129.63 -269.185)" fill="rgba(37,37,37,0.36)"/>
      </g>
    </g>
    <g id="Group_10" data-name="Group 10" transform="translate(0 0.179)">
      <g id="Group_9" data-name="Group 9">
        <path id="Path_3" data-name="Path 3" d="M1146.522,154.413a52.943,52.943,0,0,0-62.811-6.206l-5.026-5.026,15-16.092a28.4,28.4,0,0,0,5,.464,27.947,27.947,0,0,0,8.186-1.212,30.046,30.046,0,0,0,16.078-12.261l35.313-52.9a28.567,28.567,0,0,0-3.551-35.965h0l-16.7-16.7a28.55,28.55,0,0,0-35.968-3.555l-53.7,35.843a28.29,28.29,0,0,0-12.193,28.707l-16.114,15.021-7.149-7.149a52.979,52.979,0,1,0-49.62,34.113,54.094,54.094,0,0,0,6.59-.407,52.76,52.76,0,0,0,20.717-7.135l4.162,4.162-63.241,58.951-4.149-4.148a53.114,53.114,0,0,0-27.068-66.953,50.12,50.12,0,0,0-17.928-4.792A53.023,53.023,0,0,0,832.785,116.1a52.252,52.252,0,0,0-7.958,27.282,53.006,53.006,0,0,0,80.21,46.106l1.162,1.162L724.95,359.611c-37.329-24.763-79.323-39.657-119.883-42.248-27.294-1.75-52.982,2.207-75.679,11.354L362.5,161.826A74.469,74.469,0,0,0,262.3,157.3l-2.366-2.366c-6.692-6.692-17.683-7.369-24.57-.877a17.285,17.285,0,0,0-.38,24.811L451.144,395.036a223.123,223.123,0,0,0-22.111,36.125,77.3,77.3,0,0,1-36.961,31.228,28.3,28.3,0,0,0-17.644,26.327,27.23,27.23,0,0,0,16.9,25.273l1.043.439a17.3,17.3,0,0,0,2.144,1.016,7.642,7.642,0,0,1,3.864,2.755c6.031,9.02-9.795,44.24-53.755,74.727-33.3,23.12-63.814,30.508-79.294,27.587-2.675-.507-6.165-1.568-7.726-3.751-.336-.6-2.212-4.123-7.317-16.571A25.507,25.507,0,0,0,226.7,584.4a26.332,26.332,0,0,0-24.438,16.255,77.108,77.108,0,0,1-16.635,24.786,74.4,74.4,0,0,1-27.987,17.66q-8.279,2.861-16.31,6.053a17.318,17.318,0,0,0-9.429,23.293l0,.011a17.264,17.264,0,0,0,22.1,8.845q7.327-2.912,14.941-5.544a109.241,109.241,0,0,0,41.116-25.877A111.548,111.548,0,0,0,225.7,630.271a41.693,41.693,0,0,0,3.076,5.569c6.478,9.681,16.892,16.126,30.119,18.631,27.957,5.281,68.355-7.411,105.43-33.149,56.308-39.048,83.3-91.639,62.745-122.385a40.545,40.545,0,0,0-9.95-10.27,111.787,111.787,0,0,0,42.021-40.521c.25-.477.5-.934.746-1.407a185.6,185.6,0,0,1,16-26.957l89.023,89.025-65.787,61.327a17.688,17.688,0,0,0-4.3,5.922,17.348,17.348,0,0,0,3.635,19.153l69.553,69.549a17.344,17.344,0,0,0,12.314,5.06c.068,0,.141,0,.209,0a17.266,17.266,0,0,0,12.336-5.5l61.541-66.012,89.02,89.02a186.811,186.811,0,0,1-27,16.051c-.439.23-.855.455-1.293.684a111.218,111.218,0,0,0-40.591,42.028,40.457,40.457,0,0,0-10.3-9.965c-30.71-20.538-83.313,6.442-122.36,62.757-25.739,37.12-38.43,77.543-33.122,105.487,2.507,13.2,8.943,23.6,18.581,30.042a45.97,45.97,0,0,0,5.594,3.1,109.487,109.487,0,0,0-45.467,56.785c-13.627,39.332-33.049,72.915-54.687,94.553-44.2,44.205-100.8,43.746-140.484,35.588-41.644-8.563-84.281-29.3-123.433-59.629l82.751-82.753L376.8,916.145a17.285,17.285,0,0,0,4.171-27.514L274.587,782.243a17.285,17.285,0,0,0-27.514,4.171L181.162,911.6,98.411,994.354c-30.333-39.157-51.075-81.8-59.64-123.44-8.163-39.691-8.615-96.285,35.586-140.487A165.224,165.224,0,0,1,89.745,716.92,17.28,17.28,0,1,0,68.41,689.731a199.791,199.791,0,0,0-18.494,16.255C6.942,748.965-9.04,810.01,4.919,877.874,17.651,939.794,53.907,1003.137,107,1056.231s116.416,89.332,178.334,102.061a231.763,231.763,0,0,0,46.72,4.914c48.922,0,92.321-17.078,125.163-49.92,25.627-25.63,47.381-62.866,62.909-107.687a75.561,75.561,0,0,1,42.348-44.617,26.57,26.57,0,0,0,8.64-5.753,26.253,26.253,0,0,0,7.2-23.729,25.471,25.471,0,0,0-15.33-18.59c-12.536-5.144-15.9-6.94-16.517-7.288-2.185-1.55-3.246-5.033-3.755-7.7-2.935-15.466,4.449-46,27.569-79.346C600.764,774.621,636,758.814,645,764.833c.423.282,1.7,1.143,2.807,3.928a17.049,17.049,0,0,0,.946,2c.077.189.168.4.266.636l.127.3a27.3,27.3,0,0,0,25.35,17.083h.084a28.314,28.314,0,0,0,26.25-17.662,76.935,76.935,0,0,1,31.231-36.911,224.66,224.66,0,0,0,36.116-22.14l323.371,323.373A17.282,17.282,0,1,0,1115.988,1011L1058.1,953.11l35.618-35.618a17.282,17.282,0,0,0,0-24.441L834.478,633.812c9.136-22.684,13.089-48.363,11.341-75.643-2.591-40.56-17.487-82.551-42.244-119.874l33.883-36.345a17.279,17.279,0,0,0-.857-24.423l0,0a17.279,17.279,0,0,0-24.423.857L699.7,499.036l-35.52-35.518L1056.834,97.474l8.906,8.906L864.452,322.3a17.28,17.28,0,0,0,.857,24.423l0,0a17.279,17.279,0,0,0,24.422-.857l82.828-88.852,3.3,3.3a53.1,53.1,0,1,0,22.311-26.571l-2.023-2.023,58.951-63.241,6.3,6.3a53,53,0,1,0,85.127-20.367ZM977.9,69.828a18.422,18.422,0,1,1-3.191-25.873A18.292,18.292,0,0,1,977.9,69.828Zm-85.538,85.54a18.428,18.428,0,1,1,3.767-13.6A18.456,18.456,0,0,1,892.361,155.368Zm-625.63,667.9,73.215,73.215-95.483,50.273-28-28.005ZM131.444,1031.792c-3.619-3.619-7.124-7.3-10.57-11.018l74.359-74.361L216.8,967.985l-74.361,74.359C138.736,1038.9,135.056,1035.407,131.444,1031.792ZM481.861,359.932q-4.33,4.33-8.342,8.6L286.942,181.955a39.828,39.828,0,0,1,51.109,4.317L497.971,346.188A138.594,138.594,0,0,0,481.861,359.932Zm16.112,33.054c2.662-2.846,5.428-5.712,8.329-8.615a107.035,107.035,0,0,1,16.412-13.439l91.712,91.712-24.22,22.579Zm81.821,234.674-44.237-44.235,53.81-50.163,40.591,40.591Zm435.844,236.194,41.421,41.421-23.4,23.4-41.419-41.419ZM991.2,839.413l-23.4,23.4L794.673,689.691q4.272-4.023,8.6-8.343a138.366,138.366,0,0,0,13.741-16.11ZM779.253,464.387c18.767,30.48,30.024,63.873,32.076,95.988a147.024,147.024,0,0,1-4.053,46.235l-83.122-83.122Zm-78.68,84.4,91.7,91.7a106.675,106.675,0,0,1-13.439,16.417q-4.351,4.351-8.613,8.329l-92.23-92.23Zm-24.457-24.457-22.579,24.22-38.875-38.875,24.22-22.577Zm-36.391-85.272-83.138-83.138a147.349,147.349,0,0,1,46.272-4.067c32.115,2.055,65.509,13.309,95.994,32.081Zm371.114-171.194a18.331,18.331,0,0,1,12.279-6.954,18.573,18.573,0,0,1,2.294-.141,18.433,18.433,0,1,1-14.573,7.094ZM1073.68,65.438l43.4-28.971,9.665,9.663-28.973,43.4Zm51.764,139.575a18.435,18.435,0,1,1-3.189-25.875A18.457,18.457,0,0,1,1125.444,205.013Z" transform="translate(0 -0.179)" fill="rgba(37,37,37,0.36)"/>
      </g>
    </g>
  </g>
</svg>

