<svg xmlns="http://www.w3.org/2000/svg" viewBox="0 0 512 360">
  <g id="Group_25" data-name="Group 25" transform="translate(0 -76)" >
    <g id="Group_24" data-name="Group 24">
      <path id="Path_21" data-name="Path 21" d="M482,76H30A30.034,30.034,0,0,0,0,106V406a30.034,30.034,0,0,0,30,30H482a30.034,30.034,0,0,0,30-30V106A30.034,30.034,0,0,0,482,76ZM106,416H66V216H86V326a10,10,0,0,0,10,10h10Zm80,0H126V336h10a10,10,0,0,0,10-10V216h20V326a10,10,0,0,0,10,10h10ZM106,316V216h20V316ZM246,416H206V336h10a10,10,0,0,0,10-10V216h20ZM186,316V216h20V316ZM306,416H266V216h20V326a10,10,0,0,0,10,10h10Zm80,0H326V336h10a10,10,0,0,0,10-10V216h20V326a10,10,0,0,0,10,10h10ZM306,316V216h20V316ZM446,416H406V336h10a10,10,0,0,0,10-10V216h20ZM386,316V216h20V316Zm106,90a10.011,10.011,0,0,1-10,10H466V206a10,10,0,0,0-10-10H56a10,10,0,0,0-10,10V416H30a10.011,10.011,0,0,1-10-10V176H492Zm0-250H20V106A10.011,10.011,0,0,1,30,96H482a10.011,10.011,0,0,1,10,10Z" fill="#fff"/>
    </g>
  </g>
</svg>
